<svg xmlns="http://www.w3.org/2000/svg" viewBox="0 0 846.68 99.88"><defs><style>.cls-1{fill:#1d1d1b;}</style></defs><g id="Capa_2" data-name="Capa 2"><g id="Capa_1-2" data-name="Capa 1"><path class="cls-1" d="M31.35,19.22c41.21,0,38.35,68.92-4.93,69H0v-.5c2.27,0,4-1.38,4-6.9V26.62c0-5.52-1.77-6.9-4-6.9v-.5ZM13.9,78.87c0,5.52,3.65,8.38,5.92,8.38H27.6c35.79,0,27.81-67.14-2.26-67H13.9Z"></path><path class="cls-1" d="M68.52,52.65c.1-17.36,10.45-34.41,32.34-34.41,20.11,0,31.35,18.34,31.55,36.38.29,17.45-9.66,34.6-31.55,34.6C79.66,89.22,68.42,70.69,68.52,52.65ZM106.87,87c12.52,0,17.85-10.35,17.85-22.87C124.82,45,112.39,20.6,94.84,20.6c-12.32,0-17.74,9.57-18.23,21.5C75.92,61.42,88.63,87,106.87,87ZM94.55,14.3,97.11,0h9.17L95.53,14.3Z"></path><path class="cls-1" d="M141.28,88.24v-.5c2.27,0,4.05-1.38,4.05-6.9V24.75l-3.85-5v-.5h11.14l41.21,53.83V26.62c0-5.52-1.77-6.9-4-6.9v-.5h9.07v.5c-2.27,0-4,1.38-4,6.9V88.24h-1L146.31,26V80.84c0,5.52,1.78,6.9,4,6.9v.5Z"></path><path class="cls-1" d="M240.07,19.22c41.21,0,38.35,68.92-4.93,69H208.72v-.5c2.27,0,4-1.38,4-6.9V26.62c0-5.52-1.77-6.9-4-6.9v-.5ZM222.62,78.87c0,5.52,3.65,8.38,5.92,8.38h7.79c35.78,0,27.8-67.14-2.27-67H222.62Z"></path><path class="cls-1" d="M278.23,19.22h47.42l3,11.83c-5.62-8.18-15.68-10.84-21-10.84H292.13V49.29h14c5.52,0,6.9-3.74,6.9-4h.49v9.07H313c0-.29-1.38-4-6.9-4h-14v37h15.48c5.32-.1,15.38-2.66,21-10.85l-3,11.84H278.23v-.5c2.27,0,4-1.38,4-6.9V26.62c0-5.52-1.77-6.9-4-6.9Z"></path><path class="cls-1" d="M413.34,55.65a92,92,0,0,1-13.12,11.78q-5.31,3.66-9.14,3.65a4.29,4.29,0,0,1-3.6-1.69,7.45,7.45,0,0,1-1.3-4.61,18.92,18.92,0,0,1,1.21-6.26,36.23,36.23,0,0,1,3.6-7.14q1.45-2.34,4.32-6.44,6.3-9.12,6.3-13A6.35,6.35,0,0,0,399,26.51a11.69,11.69,0,0,0-7.16-1.94,28.79,28.79,0,0,0-10.08,2,36.15,36.15,0,0,0-9.8,5.49,27.76,27.76,0,0,0-6.38,6.79,12.56,12.56,0,0,0-2.35,6.65,6.06,6.06,0,0,0,1.82,4.68,7.3,7.3,0,0,0,5.1,1.67,18.72,18.72,0,0,0,11.06-4,25.74,25.74,0,0,0,8.38-10.23,38.8,38.8,0,0,0,2-5.65c.53-1.94.9-2.91,1.1-2.91s.28.18.4.53a3.91,3.91,0,0,1,.17,1.24,23.42,23.42,0,0,1-.7,5.35,26,26,0,0,1-1.94,5.49,23.86,23.86,0,0,1-7.83,9.9,18.94,18.94,0,0,1-11.13,3.37,10.93,10.93,0,0,1-7.23-2.31,7.51,7.51,0,0,1-2.78-6.06,15.24,15.24,0,0,1,2.69-8.25,30.15,30.15,0,0,1,7.67-7.85A39.76,39.76,0,0,1,382,25.3,30.22,30.22,0,0,1,392,23.42q5.91,0,9.23,3.24t3.33,9q0,5.52-6.08,14.81c-1.15,1.77-2,3.12-2.6,4.06l-.8,1.32c-3.79,6.21-5.68,9.95-5.68,11.25a2.31,2.31,0,0,0,.55,1.72,2.51,2.51,0,0,0,1.78.52q4.95,0,11.66-6t18.32-20.94a76.6,76.6,0,0,1,13.69-14.06q7.44-5.82,9.95-5.82a1.42,1.42,0,0,1,.83.24.7.7,0,0,1,.36.59c0,.65-.92,1.31-2.74,2-.91.35-1.63.64-2.16.88a23.1,23.1,0,0,0-6.9,4.92,43,43,0,0,0-6.28,8.53q-2.78,4.8-8.91,17A193.19,193.19,0,0,1,409.2,75.23q-8.11,12.48-18.65,18.56a47.17,47.17,0,0,1-24,6.09q-11.41,0-18.23-4.92a15.32,15.32,0,0,1-6.81-13q0-9,7.31-15.39a26.27,26.27,0,0,1,17.9-6.39c5.18,0,9.31,1.24,12.42,3.73a12,12,0,0,1,4.65,9.89A13.93,13.93,0,0,1,378.22,85a20.93,20.93,0,0,1-13.73,4.52,17.75,17.75,0,0,1-4.56-.5c-1.22-.34-1.83-.75-1.83-1.22a.22.22,0,0,1,.09-.19.78.78,0,0,1,.44-.07c.14,0,.87.1,2.18.31a24.46,24.46,0,0,0,3.68.31,19.37,19.37,0,0,0,12.34-4,11.89,11.89,0,0,0,5-9.68,9.5,9.5,0,0,0-3.77-7.91q-3.76-2.93-10.25-2.93a25.32,25.32,0,0,0-8.57,1.5,27.13,27.13,0,0,0-7.74,4.27,21.55,21.55,0,0,0-5.67,6.31,14.11,14.11,0,0,0-1.92,7q0,6.93,6.09,11.38t15.83,4.45q14.72,0,25.08-9.1T413.34,55.65Z"></path><path class="cls-1" d="M482.87,18a32.48,32.48,0,0,1,19.32,5.82L500,27.41c-1,1.67-2.17,2.46-3.45,2.46s-2.36-.69-3.55-2.17c-3.25-3.84-8.18-7.69-16-7.59-29.87.49-20.6,64.38,11,64.38,7.4,0,13.61-3.55,18.34-8.68l.59.59c-6.51,8.78-16,12.82-26.32,12.82C441.36,89.22,437.81,18,482.87,18Z"></path><path class="cls-1" d="M531.87,19.22v.5c-2.27,0-4,1.38-4,6.9V52.94c0,11.54,1.57,33.42,20.9,33.42,18.23,0,17.94-22,17.94-33.42V26.62c0-5.52-1.78-6.9-4-6.9v-.5h9.17v.5c-2.27,0-4,1.38-4,6.9V57.67c0,17.26-4.73,31.55-24.74,31.55-22,0-25-13.6-25-31.65V26.62c0-5.52-1.78-6.9-4-6.9v-.5Z"></path><path class="cls-1" d="M573.77,87.74c2.27,0,4.63-1.38,6.9-6.9l25.14-61.62h2.07L632,80.84c2.17,5.52,4.63,6.9,6.9,6.9v.5H620.5v-.5c2.27,0,3.35-1.38,1.18-6.9L616.26,67H587.38l-5.62,13.8c-2.27,5.52-1.09,6.9,1.18,6.9v.5h-9.17Zm42.1-21.69L602.16,31,587.77,66.05ZM603.05,0h9.17L601.47,14.3h-1Z"></path><path class="cls-1" d="M646.83,88.24v-.5c2.27,0,4-1.38,4-6.9V24.75l-3.84-5v-.5h11.14l41.21,53.83V26.62c0-5.52-1.78-6.9-4-6.9v-.5h9.07v.5c-2.26,0-4,1.38-4,6.9V88.24h-1L651.86,26V80.84c0,5.52,1.77,6.9,4,6.9v.5Z"></path><path class="cls-1" d="M745.62,19.22c41.21,0,38.35,68.92-4.93,69H714.27v-.5c2.26,0,4-1.38,4-6.9V26.62c0-5.52-1.78-6.9-4-6.9v-.5ZM728.17,78.87c0,5.52,3.64,8.38,5.91,8.38h7.79c35.79,0,27.8-67.14-2.27-67H728.17Z"></path><path class="cls-1" d="M782.79,52.65c.1-17.36,10.45-34.41,32.34-34.41,20.11,0,31.35,18.34,31.54,36.38.3,17.45-9.66,34.6-31.54,34.6C793.93,89.22,782.69,70.69,782.79,52.65ZM821.14,87C833.66,87,839,76.6,839,64.08c.1-19.12-12.32-43.48-29.87-43.48-12.32,0-17.74,9.57-18.24,21.5C790.18,61.42,802.9,87,821.14,87Z"></path></g></g></svg>