<svg xmlns="http://www.w3.org/2000/svg" viewBox="0 0 452.89 132.61"><defs><style>.cls-1{fill:#1d1d1b;}</style></defs><g id="Capa_2" data-name="Capa 2"><g id="Capa_1-2" data-name="Capa 1"><path class="cls-1" d="M210.19,57.68a15.86,15.86,0,0,0,7.28-2,39.4,39.4,0,0,0,8.27-6.05c.4-.36.76-.7,1.09-1,0,.4-.06.8-.06,1.19a11.88,11.88,0,0,0,1.2,5.84,3.65,3.65,0,0,0,3.29,2.11A8.37,8.37,0,0,0,235.92,56a25.38,25.38,0,0,0,5.15-5.11c-.15.81-.26,1.42-.31,1.84a9.45,9.45,0,0,0-.07,1.12,4.46,4.46,0,0,0,.81,2.89,2.92,2.92,0,0,0,2.38,1,6.82,6.82,0,0,0,3.67-1.27,42.82,42.82,0,0,0,6.06-5.5c1.22-1.21,2.12-2.18,2.7-2.89a3.21,3.21,0,0,0,.88-1.48.26.26,0,0,0-.12-.23.62.62,0,0,0-.34-.07c-.17,0-.66.44-1.46,1.33s-1.5,1.63-2.11,2.24a54.15,54.15,0,0,1-5.31,5c-1.4,1.1-2.44,1.66-3.09,1.66a1.22,1.22,0,0,1-.92-.29,1.38,1.38,0,0,1-.26-.93,5.09,5.09,0,0,1,.49-2,35.5,35.5,0,0,1,2.4-4.1L255,35.67l-5.13.3-3.2,4.68a6.5,6.5,0,0,0,.23-.92,4.41,4.41,0,0,0,.08-.79,3.36,3.36,0,0,0-1.12-2.63,4.37,4.37,0,0,0-3-1,14.27,14.27,0,0,0-6.71,2A32.28,32.28,0,0,0,228.86,43c-1.11,1.14-2,2.1-2.66,2.89a4.13,4.13,0,0,0-1,1.48.26.26,0,0,0,.1.23.61.61,0,0,0,.36.07,1.15,1.15,0,0,0,.72-.4,6,6,0,0,0,.88-1.12c-.05.16-.06.32-.1.48l-.13.13c-.49.51-.89.91-1.22,1.22a26.49,26.49,0,0,1-6.64,5,14.65,14.65,0,0,1-6.52,1.52,33.59,33.59,0,0,1-7-.84,56,56,0,0,1-8.08-2.43,50.6,50.6,0,0,0,9.1-9.4,87,87,0,0,0,8.2-13.57q11.63-4.91,18.53-11.08t6.91-11.43A3.66,3.66,0,0,0,239.2,3a3.88,3.88,0,0,0-2.85-1.08,12,12,0,0,0-5.72,1.92,55.58,55.58,0,0,0-8.08,6,30.35,30.35,0,0,0-9.87-7.38A27.33,27.33,0,0,0,201.14,0q-8.92,0-14.62,4.64a14.55,14.55,0,0,0-5.68,11.79,12.45,12.45,0,0,0,5.23,10.32q5.22,4,13.59,4c1.39,0,2.77-.06,4.14-.17s2.77-.29,4.19-.51q-5.64,10.8-8.29,14.86a21.16,21.16,0,0,1-4.79,5.59q-5.94-1.66-9.09-2.24a32.78,32.78,0,0,0-5.78-.57A11.09,11.09,0,0,0,174.26,49a3.9,3.9,0,0,0-2.09,3.48,4.13,4.13,0,0,0,2.47,3.67,13.37,13.37,0,0,0,6.58,1.39,21.33,21.33,0,0,0,6.2-1,35.51,35.51,0,0,0,6.88-3.08q6.22,2.31,9.85,3.25A25,25,0,0,0,210.19,57.68Zm21.07-8.86a29.89,29.89,0,0,1,3.34-6,21.69,21.69,0,0,1,4.45-4.65,7.15,7.15,0,0,1,4.15-1.66,2.51,2.51,0,0,1,1.8.71,2.25,2.25,0,0,1,.74,1.73A12.58,12.58,0,0,1,244,44.62a33.07,33.07,0,0,1-4.88,6.75,22.39,22.39,0,0,1-4,3.61,6.19,6.19,0,0,1-3.22,1.29,1.63,1.63,0,0,1-1.37-.64,2.88,2.88,0,0,1-.49-1.75A14.05,14.05,0,0,1,231.26,48.82Zm-7.76-36c.58.74,1.22,1.63,1.9,2.68s1.14,1.58,1.37,1.58a.18.18,0,0,0,.17-.11.79.79,0,0,0,.06-.35,4.33,4.33,0,0,0-.71-1.71,35.36,35.36,0,0,0-2.11-3.12,35,35,0,0,1,6.52-6.31c2.17-1.54,4-2.32,5.42-2.32A3.1,3.1,0,0,1,238.4,4a3.1,3.1,0,0,1,.76,2.29q0,4.49-6.31,9.82a53.8,53.8,0,0,1-16.5,9.07,65.67,65.67,0,0,1,3.21-6.25Q221.33,15.85,223.5,12.85ZM205.38,27.22a34.91,34.91,0,0,1-3.52.19c-5.72,0-10.38-1.15-14-3.46s-5.36-5.26-5.36-8.86A12.29,12.29,0,0,1,187.72,5q5.17-4,13.19-4a26.33,26.33,0,0,1,11.3,2.47,29.09,29.09,0,0,1,9.5,7.26,69,69,0,0,0-6.06,7.09,102.82,102.82,0,0,0-5.84,8.81C208.14,26.9,206.66,27.1,205.38,27.22ZM186.9,55.55a16.67,16.67,0,0,1-5.61,1A11.28,11.28,0,0,1,176,55.4c-1.43-.76-2.15-1.69-2.15-2.78a2.54,2.54,0,0,1,1.45-2.28,8,8,0,0,1,4-.83,21.56,21.56,0,0,1,4.92.62,78.77,78.77,0,0,1,8,2.57A20.26,20.26,0,0,1,186.9,55.55Z"></path><path class="cls-1" d="M30.81,128.77c-25.69,0-33.21-51.85-9-52.25a16.05,16.05,0,0,1,13,6.16,3.84,3.84,0,0,0,2.88,1.76,3.35,3.35,0,0,0,2.8-2l1.76-2.88a26.37,26.37,0,0,0-15.68-4.72c-36.57,0-33.69,57.77-1.76,57.77,8.4,0,16.08-3.28,21.36-10.4l-.48-.48C41.85,125.89,36.81,128.77,30.81,128.77Z"></path><path class="cls-1" d="M75.62,76.6c4.32,0,12.48,2.16,17,8.8l-2.4-9.6H51.77v.4c1.84,0,3.28,1.12,3.28,5.6v44c0,4.48-1.44,5.6-3.28,5.6v.4H90.26l2.4-9.6c-4.56,6.64-12.72,8.72-17,8.8H63.05V101H74.42c4.48,0,5.6,3,5.6,3.28h.4V96.92H80c0,.24-1.12,3.28-5.6,3.28H63.05V76.6Z"></path><path class="cls-1" d="M138.11,125.81l-13.68-22.33C147.23,100,147.07,75.8,122,75.8h-23v.4c1.84,0,3.28,1.12,3.28,5.6v44c0,4.48-1.44,5.6-3.28,5.6v.4h14.56v-.4c-1.84,0-3.28-1.12-3.28-5.6V104h5.93l13.36,21.85c2.72,4.48,2,5.6.16,5.6v.4h15v-.4C143,131.41,140.91,130.37,138.11,125.81Zm-27.77-22.65V76.6h7.53c18.48,0,24,26.4,1.52,26.56Z"></path><path class="cls-1" d="M175.88,76.6c4.32,0,12.48,2.16,17,8.8l-2.4-9.6H152v.4c1.84,0,3.28,1.12,3.28,5.6v44c0,4.48-1.44,5.6-3.28,5.6v.4h38.49l2.4-9.6c-4.56,6.64-12.72,8.72-17,8.8H163.31V101h11.37c4.48,0,5.6,3,5.6,3.28h.4V96.92h-.4c0,.24-1.12,3.28-5.6,3.28H163.31V76.6Z"></path><path class="cls-1" d="M229.49,112.68,208,75.8H199.4v.4l2.88,5v44.65c0,4.48-1.28,5.6-3,5.6v.4H206v-.4c-1.68,0-3-1.12-3-5.6V82.52l22.41,38.73,22.24-38.49v43.05c0,4.48-1.36,5.6-3,5.6v.4h13.36v-.4c-1.68,0-3-1.12-3-5.6v-44c0-4.48,1.36-5.6,3-5.6v-.4h-7.28Z"></path><path class="cls-1" d="M291.5,75c-17.76,0-26.16,13.84-26.24,27.92-.08,14.65,9,29.69,26.24,29.69,17.76,0,25.85-13.92,25.61-28.09C317,89.88,307.82,75,291.5,75Zm4.88,55.77c-14.8,0-25.12-20.73-24.56-36.41.4-9.68,4.8-17.44,14.8-17.44,14.24,0,24.32,19.76,24.24,35.28C310.86,122.37,306.54,130.77,296.38,130.77Z"></path><path class="cls-1" d="M363.68,76.2c1.84,0,3.28,1.12,3.28,5.6v37.69L333.51,75.8h-9v.4l3.12,4.08v45.53c0,4.48-1.44,5.6-3.28,5.6v.4h7.36v-.4c-1.84,0-3.28-1.12-3.28-5.6V81.32L367,131.81h.8v-50c0-4.48,1.44-5.6,3.28-5.6v-.4h-7.36Z"></path><path class="cls-1" d="M379,76.2c1.84,0,3.28,1.12,3.28,5.6v44c0,4.48-1.44,5.6-3.28,5.6v.4H393.6v-.4c-1.84,0-3.28-1.12-3.28-5.6v-44c0-4.48,1.44-5.6,3.28-5.6v-.4H379Z"></path><path class="cls-1" d="M447.29,125.81l-19.6-50H426l-20.41,50c-1.84,4.48-3.76,5.6-5.6,5.6v.4h7.44v-.4c-1.84,0-2.8-1.12-1-5.6l4.57-11.21h23.44l4.4,11.21c1.76,4.48.88,5.6-1,5.6v.4h15v-.4C451.05,131.41,449.05,130.29,447.29,125.81Zm-35.93-12,11.69-28.48,11.12,28.48Z"></path></g></g></svg>