<svg xmlns="http://www.w3.org/2000/svg" viewBox="0 0 476.82 132.61"><defs><style>.cls-1{fill:#1d1d1b;}</style></defs><g id="Capa_2" data-name="Capa 2"><g id="Capa_1-2" data-name="Capa 1"><path class="cls-1" d="M248.68,56a24.88,24.88,0,0,0,5.15-5.11c-.15.81-.25,1.42-.3,1.84a9.64,9.64,0,0,0-.08,1.12,4.41,4.41,0,0,0,.82,2.89,2.88,2.88,0,0,0,2.37,1,6.79,6.79,0,0,0,3.67-1.27,42.73,42.73,0,0,0,6.07-5.5c1.21-1.21,2.11-2.18,2.7-2.89a3.25,3.25,0,0,0,.87-1.48.27.27,0,0,0-.11-.23.64.64,0,0,0-.34-.07c-.18,0-.67.44-1.47,1.33s-1.5,1.63-2.11,2.24a55.42,55.42,0,0,1-5.3,5c-1.41,1.1-2.44,1.66-3.1,1.66a1.19,1.19,0,0,1-.91-.29,1.32,1.32,0,0,1-.27-.93,5.09,5.09,0,0,1,.49-2,35.5,35.5,0,0,1,2.4-4.1l8.55-13.46-5.13.3-3.19,4.68c.1-.33.17-.64.23-.92a4.37,4.37,0,0,0,.07-.79,3.33,3.33,0,0,0-1.12-2.63,4.35,4.35,0,0,0-3-1,14.31,14.31,0,0,0-6.71,2A32.5,32.5,0,0,0,241.62,43c-1.11,1.14-2,2.1-2.66,2.89a4.13,4.13,0,0,0-1,1.48.29.29,0,0,0,.1.23.61.61,0,0,0,.36.07,1.15,1.15,0,0,0,.72-.4,6,6,0,0,0,.88-1.12c0,.16-.06.32-.1.48l-.13.13c-.48.51-.89.91-1.22,1.22A26.64,26.64,0,0,1,232,53a14.68,14.68,0,0,1-6.52,1.52,33.68,33.68,0,0,1-7-.84,56,56,0,0,1-8.08-2.43,50.89,50.89,0,0,0,9.11-9.39,88.84,88.84,0,0,0,8.19-13.58q11.64-4.91,18.54-11.08t6.9-11.43A3.69,3.69,0,0,0,252,3a3.92,3.92,0,0,0-2.86-1.08,12,12,0,0,0-5.72,1.92,55.58,55.58,0,0,0-8.08,6,30.35,30.35,0,0,0-9.87-7.38A27.3,27.3,0,0,0,213.9,0Q205,0,199.28,4.64a14.55,14.55,0,0,0-5.68,11.79,12.45,12.45,0,0,0,5.23,10.32q5.22,4,13.59,4c1.39,0,2.78-.06,4.15-.17s2.76-.29,4.18-.51q-5.62,10.8-8.29,14.86a21,21,0,0,1-4.79,5.59c-4-1.11-7-1.86-9.09-2.24a32.69,32.69,0,0,0-5.78-.57A11.11,11.11,0,0,0,187,49a3.92,3.92,0,0,0-2.09,3.48,4.13,4.13,0,0,0,2.47,3.67A13.37,13.37,0,0,0,194,57.53a21.33,21.33,0,0,0,6.2-1,35.25,35.25,0,0,0,6.88-3.08q6.24,2.31,9.85,3.25a25.08,25.08,0,0,0,6,.93,15.86,15.86,0,0,0,7.28-2,39.44,39.44,0,0,0,8.28-6.05c.4-.36.75-.7,1.09-1,0,.4-.07.8-.07,1.19a11.88,11.88,0,0,0,1.2,5.84A3.66,3.66,0,0,0,244,57.68,8.32,8.32,0,0,0,248.68,56Zm-12.42-43.1c.58.74,1.22,1.63,1.9,2.68s1.14,1.58,1.37,1.58a.18.18,0,0,0,.17-.11.79.79,0,0,0,.06-.35,4.42,4.42,0,0,0-.7-1.71A36.22,36.22,0,0,0,237,11.83a34.48,34.48,0,0,1,6.52-6.32c2.16-1.54,4-2.32,5.42-2.32a3.14,3.14,0,0,1,2.28.76,3.15,3.15,0,0,1,.76,2.29q0,4.49-6.31,9.82a53.86,53.86,0,0,1-16.51,9.07,65.74,65.74,0,0,1,3.22-6.25Q234.1,15.85,236.26,12.85ZM218.14,27.22a34.87,34.87,0,0,1-3.51.19q-8.59,0-14-3.46c-3.57-2.3-5.36-5.26-5.36-8.85A12.29,12.29,0,0,1,200.48,5q5.18-4,13.2-4A26.29,26.29,0,0,1,225,3.46a29.23,29.23,0,0,1,9.51,7.26,67.85,67.85,0,0,0-6.07,7.09,102.82,102.82,0,0,0-5.84,8.81C220.9,26.9,219.42,27.1,218.14,27.22ZM199.66,55.55a16.66,16.66,0,0,1-5.6,1,11.35,11.35,0,0,1-5.35-1.14c-1.43-.76-2.14-1.69-2.14-2.78A2.55,2.55,0,0,1,188,50.34a8.07,8.07,0,0,1,4-.83,21.64,21.64,0,0,1,4.93.62,79.59,79.59,0,0,1,8,2.57A20.1,20.1,0,0,1,199.66,55.55Zm43.64.08a2.82,2.82,0,0,1-.5-1.75A14.05,14.05,0,0,1,244,48.82a30,30,0,0,1,3.35-6,21.67,21.67,0,0,1,4.44-4.65A7.15,7.15,0,0,1,256,36.5a2.55,2.55,0,0,1,1.81.71,2.28,2.28,0,0,1,.74,1.73,12.71,12.71,0,0,1-1.73,5.68,33.54,33.54,0,0,1-4.89,6.75,22.05,22.05,0,0,1-4,3.61,6.2,6.2,0,0,1-3.21,1.29A1.62,1.62,0,0,1,243.3,55.63Z"></path><path class="cls-1" d="M30.81,128.77c-25.69,0-33.21-51.85-9-52.25a16.05,16.05,0,0,1,13,6.16,3.84,3.84,0,0,0,2.88,1.76,3.35,3.35,0,0,0,2.8-2l1.76-2.88a26.37,26.37,0,0,0-15.68-4.72c-36.57,0-33.69,57.77-1.76,57.77,8.4,0,16.08-3.28,21.36-10.4l-.48-.48C41.85,125.89,36.81,128.77,30.81,128.77Z"></path><path class="cls-1" d="M75.62,76.6c4.32,0,12.48,2.16,17,8.8l-2.4-9.6H51.77v.4c1.84,0,3.28,1.12,3.28,5.6v44c0,4.48-1.44,5.6-3.28,5.6v.4H90.26l2.4-9.6c-4.56,6.64-12.72,8.72-17,8.8H63.05V101H74.42c4.48,0,5.6,3,5.6,3.28h.4V96.92H80c0,.24-1.12,3.28-5.6,3.28H63.05V76.6Z"></path><path class="cls-1" d="M122.91,131H110.34V81.8c0-4.48,1.44-5.6,3.28-5.6v-.4H99.06v.4c1.84,0,3.28,1.12,3.28,5.6v44c0,4.48-1.44,5.6-3.28,5.6v.4h38.49l2.4-9.6C135.39,128.85,127.23,130.93,122.91,131Z"></path><path class="cls-1" d="M170.2,76.6c4.32,0,12.48,2.16,17,8.8l-2.4-9.6H146.35v.4c1.84,0,3.28,1.12,3.28,5.6v44c0,4.48-1.44,5.6-3.28,5.6v.4h38.49l2.4-9.6c-4.56,6.64-12.72,8.72-17,8.8H157.63V101H169c4.48,0,5.6,3,5.6,3.28h.4V96.92h-.4c0,.24-1.12,3.28-5.6,3.28H157.63V76.6Z"></path><path class="cls-1" d="M221.41,99c18.8-3.76,18.32-23.2-3.2-23.2H193.64v.4c1.84,0,3.28,1.12,3.28,5.6v44c0,4.48-1.44,5.6-3.28,5.6v.4h21.13C242.05,131.73,245,101.48,221.41,99ZM204.92,76.6h9.13c15.28,0,20.8,22.08,1.52,22.24H204.92ZM215.57,131h-5.85c-1.84,0-4.8-2.32-4.8-6.8V99.64h9.13C232.53,99.64,238.05,130.85,215.57,131Z"></path><path class="cls-1" d="M288.7,125.81l-19.6-50h-1.68l-20.41,50c-1.84,4.48-3.76,5.6-5.6,5.6v.4h7.44v-.4c-1.84,0-2.8-1.12-1-5.6l4.56-11.21H275.9l4.4,11.21c1.76,4.48.88,5.6-1,5.6v.4h15v-.4C292.46,131.41,290.46,130.29,288.7,125.81Zm-35.93-12,11.69-28.48,11.12,28.48Z"></path><path class="cls-1" d="M328.31,128.77c-25.69,0-33.21-51.85-9-52.25a16.05,16.05,0,0,1,13,6.16,3.84,3.84,0,0,0,2.88,1.76,3.35,3.35,0,0,0,2.8-2l1.76-2.88a26.37,26.37,0,0,0-15.68-4.72c-36.57,0-33.69,57.77-1.76,57.77,8.4,0,16.08-3.28,21.36-10.4l-.48-.48C339.35,125.89,334.31,128.77,328.31,128.77Z"></path><path class="cls-1" d="M349.27,76.2c1.84,0,3.28,1.12,3.28,5.6v44c0,4.48-1.44,5.6-3.28,5.6v.4h14.57v-.4c-1.84,0-3.28-1.12-3.28-5.6v-44c0-4.48,1.44-5.6,3.28-5.6v-.4H349.27Z"></path><polygon class="cls-1" points="401.68 60.19 394.24 60.19 392.16 71.8 392.96 71.8 401.68 60.19"></polygon><path class="cls-1" d="M397.28,75c-17.76,0-26.16,13.84-26.24,27.92-.08,14.64,9,29.69,26.24,29.69,17.77,0,25.85-13.92,25.61-28.09C422.73,89.88,413.61,75,397.28,75Zm4.88,55.77c-14.8,0-25.12-20.73-24.56-36.41.4-9.68,4.8-17.44,14.8-17.44,14.24,0,24.33,19.76,24.25,35.28C416.65,122.37,412.32,130.77,402.16,130.77Z"></path><path class="cls-1" d="M469.46,75.8v.4c1.84,0,3.28,1.12,3.28,5.6v37.69L439.29,75.8h-9v.4l3.12,4.08v45.53c0,4.48-1.44,5.6-3.28,5.6v.4h7.36v-.4c-1.84,0-3.28-1.12-3.28-5.6V81.32l38.57,50.49h.8v-50c0-4.48,1.44-5.6,3.28-5.6v-.4Z"></path></g></g></svg>